o ModuleFront_X_-X_-XX-_X-_X
v -0.854439 0.15 -0.256271
v -0.8 0.15 -0.509090909090909
v -0.8 0.15 -0.8
v -0.854439 0.15 -0.854439
v -0.8 0.15 -0.47272727272727277
v -0.509090909090909 0.15 -0.47272727272727277
v -0.509090909090909 0.15 -0.509090909090909
v -0.8 0.15 -0.18181818181818182
v -0.8 0.15 -0.1454545454545455
v -0.509090909090909 0.15 -0.1454545454545455
v -0.509090909090909 0.15 -0.18181818181818182
v -0.8 0.15 0.14545454545454545
v -0.8 0.15 0.18181818181818177
v -0.509090909090909 0.15 0.18181818181818177
v -0.509090909090909 0.15 0.14545454545454545
v -0.8 0.15 0.47272727272727272
v -0.8 0.15 0.509090909090909
v -0.509090909090909 0.15 0.509090909090909
v -0.509090909090909 0.15 0.47272727272727272
v 0.854439 0.15 0.854439
v 0.21818181818181825 0.15 -0.07272727272727264
v 0.21818181818181825 0.15 0.80000000000000027
v 0.256273 0.15 0.854439
v -0.854439 0.15 0.256271
v -0.854439 0.15 0.854439
v -0.256273 0.15 0.854439
v -0.07272727272727264 0.15 0.80000000000000027
v -0.07272727272727264 0.15 0.21818181818181825
v -0.36363636363636365 0.15 0.21818181818181825
v -0.07272727272727264 0.15 -0.65454545454545454
v -0.07272727272727264 0.15 -0.07272727272727264
v 0.854439 0.15 0.256271
v 0.854439 0.15 -0.256271
v 0.861069 0.15 -0.396061
v 0.784569 0.15 -0.472279
v 0.672195 0.15 -0.46653
v 0.524693 0.15 -0.545002
v 0.443619 0.15 -0.693596
v -0.36363636363636365 0.15 -0.65454545454545454
v 0.444206 0.15 -0.774025
v 0.364376 0.15 -0.854439
v 0.256273 0.15 -0.854439
v -0.256271 0.15 -0.854439
v -0.509090909090909 0.15 -0.8
v -0.509090909090909 0.15 0.8
v -0.8 0.15 0.8
vn 0 0.015836799999999977 0
vn 0 0.032563667751999939 0
vn 0 0.01057851239669419 0
vn 0 0.010578512396694205 0
vn 0 0.55527899504132228 0
vn 0 0.032563558873999809 0
vn 0 0.027902273937999954 0
vn 0 0.027902491693999835 0
vn 0 0.015836799999999908 0
vn 0 0.16925619834710756 0
vn 0 0.16925619834710745 0
vn 0 0.10046489917355378 0
vn 0 0.55460119502472716 0
vn 0 0.47521165575618179 0
vn 0 0.1322491328981818 0
vn 0 0.0090047200319999989 0
vn 0 0.016982696675 0
vn 0 0.030722885009090886 0
vn 0 0.079891941971818176 0
vn 0 0.011360158677685953 0
vn 0 0.064903818971727242 0
vn 0 0.0744998879430909 0
vn 0 0.021609091944272723 0
vn 0 0.10245423736145452 0
vn 0 0.044692204958677671 0
vn 0 0.12694214876033053 0
vn 0 0.042314049586776856 0
vn 0 0.0052892561983470905 0
vn 0 0.042314049586776849 0
vn 0 0.0052892561983470992 0
vn 0 0.063471074380165249 0
vn 0 0.015867768595041305 0
vn 0 0.12694214876033061 0
vn 0 0.12694214876033064 0
vn 0 0.023755200000000035 0
vn 0 0.0019795999999999941 0
vn 0 0.015836799999999974 0
vn 0 0.0019795999999999911 0
vt 0.053872819189943411 0.65601150704431732
vt 0.079847216479999983 0.776639085830909
vt 0.079847216479999983 0.91544009801999993
vt 0.053872819189943411 0.9414144953100565
vt 0.079847216479999983 0.75928895930727269
vt 0.21864822866909095 0.75928895930727269
vt 0.21864822866909095 0.776639085830909
vt 0.079847216479999983 0.62048794711818178
vt 0.079847216479999983 0.60313782059454546
vt 0.21864822866909095 0.60313782059454546
vt 0.21864822866909095 0.62048794711818178
vt 0.079847216479999983 0.46433680840545449
vt 0.079847216479999983 0.44698668188181812
vt 0.21864822866909095 0.44698668188181812
vt 0.21864822866909095 0.46433680840545449
vt 0.079847216479999983 0.3081856696927272
vt 0.079847216479999983 0.29083554316909088
vt 0.21864822866909095 0.29083554316909088
vt 0.21864822866909095 0.3081856696927272
vt 0.86922718081005668 0.12606013368994334
vt 0.56565075914181828 0.56843756754727259
vt 0.56565075914181828 0.15203453097999981
vt 0.58382514680127617 0.12606013368994334
vt 0.053872819189943411 0.41146312195568252
vt 0.053872819189943411 0.12606013368994334
vt 0.3392748531987238 0.12606013368994334
vt 0.42684974695272732 0.15203453097999981
vt 0.42684974695272732 0.42963655535818174
vt 0.28804873476363635 0.42963655535818174
vt 0.42684974695272732 0.84603959192545453
vt 0.42684974695272732 0.56843756754727259
vt 0.86922718081005668 0.41146312195568252
vt 0.86922718081005668 0.65601150704431732
vt 0.87239054262847859 0.72270929717964338
vt 0.83589021395437868 0.75907507562255261
vt 0.78227337821028309 0.75633206399448194
vt 0.71189597324182419 0.79377329002995878
vt 0.67321325890294859 0.8646717192979223
vt 0.28804873476363635 0.84603959192545453
vt 0.67349333332035644 0.903046685767585
vt 0.63540416680985445 0.9414144953100565
vt 0.58382514680127617 0.9414144953100565
vt 0.33927580745568259 0.9414144953100565
vt 0.21864822866909095 0.91544009801999993
vt 0.21864822866909095 0.15203453097999992
vt 0.079847216479999983 0.15203453097999992
g ModuleFront_X_-X_-XX-_X-_X
f 1/1/1 2/2/1 3/3/1
f 4/4/2 1/1/2 3/3/2
f 2/2/3 5/5/3 6/6/3
f 7/7/3 2/2/3 6/6/3
f 8/8/4 9/9/4 10/10/4
f 11/11/4 8/8/4 10/10/4
f 12/12/4 13/13/4 14/14/4
f 15/15/4 12/12/4 14/14/4
f 16/16/4 17/17/4 18/18/4
f 19/19/4 16/16/4 18/18/4
f 20/20/5 21/21/5 22/22/5
f 23/23/6 20/20/6 22/22/6
f 2/2/7 1/1/7 24/24/7
f 2/2/2 24/24/2 25/25/2
f 26/26/8 23/23/8 22/22/8
f 25/25/6 26/26/6 22/22/6
f 25/25/9 22/22/9 27/27/9
f 27/27/10 28/28/10 29/29/10
f 30/30/11 31/31/11 21/21/11
f 30/30/12 21/21/12 20/20/12
f 30/30/13 20/20/13 32/32/13
f 30/30/14 32/32/14 33/33/14
f 30/30/15 33/33/15 34/34/15
f 34/34/16 35/35/16 36/36/16
f 30/30/17 34/34/17 36/36/17
f 30/30/18 36/36/18 37/37/18
f 30/30/19 37/37/19 38/38/19
f 39/39/20 30/30/20 38/38/20
f 39/39/21 38/38/21 40/40/21
f 39/39/22 40/40/22 41/41/22
f 39/39/23 41/41/23 42/42/23
f 39/39/24 42/42/24 43/43/24
f 43/43/2 4/4/2 3/3/2
f 43/43/1 3/3/1 44/44/1
f 39/39/25 43/43/25 44/44/25
f 29/29/26 39/39/26 44/44/26
f 29/29/27 44/44/27 7/7/27
f 29/29/28 7/7/28 6/6/28
f 29/29/29 6/6/29 11/11/29
f 29/29/30 11/11/30 10/10/30
f 29/29/29 10/10/29 15/15/29
f 27/27/31 29/29/31 15/15/31
f 27/27/32 15/15/32 14/14/32
f 27/27/33 14/14/33 19/19/33
f 27/27/32 19/19/32 18/18/32
f 27/27/34 18/18/34 45/45/34
f 25/25/35 27/27/35 45/45/35
f 25/25/1 45/45/1 46/46/1
f 25/25/1 46/46/1 17/17/1
f 25/25/36 17/17/36 16/16/36
f 25/25/37 16/16/37 13/13/37
f 25/25/36 13/13/36 12/12/36
f 25/25/37 12/12/37 9/9/37
f 25/25/36 9/9/36 8/8/36
f 25/25/37 8/8/37 5/5/37
f 25/25/38 5/5/38 2/2/38
