<?xml version="1.0" encoding="UTF-8" standalone="no"?>
<!-- Created with Inkscape (http://www.inkscape.org/) -->

<svg
   xmlns:dc="http://purl.org/dc/elements/1.1/"
   xmlns:cc="http://creativecommons.org/ns#"
   xmlns:rdf="http://www.w3.org/1999/02/22-rdf-syntax-ns#"
   xmlns:svg="http://www.w3.org/2000/svg"
   xmlns="http://www.w3.org/2000/svg"
   xmlns:sodipodi="http://sodipodi.sourceforge.net/DTD/sodipodi-0.dtd"
   xmlns:inkscape="http://www.inkscape.org/namespaces/inkscape"
   width="480"
   height="360"
   id="svg2"
   version="1.1"
   inkscape:version="0.48.4 r9939"
   sodipodi:docname="Symbols.svg"
   inkscape:export-filename="D:\c\KTANE\PatternCube\Data\Symbols.png"
   inkscape:export-xdpi="360"
   inkscape:export-ydpi="360">
  <defs
     id="defs4" />
  <sodipodi:namedview
     id="base"
     pagecolor="#ffffff"
     bordercolor="#666666"
     borderopacity="1.0"
     inkscape:pageopacity="0"
     inkscape:pageshadow="2"
     inkscape:zoom="1.5780999"
     inkscape:cx="127.53716"
     inkscape:cy="115.31129"
     inkscape:document-units="px"
     inkscape:current-layer="layer1"
     showgrid="true"
     showguides="true"
     inkscape:guide-bbox="true"
     inkscape:window-width="1839"
     inkscape:window-height="1177"
     inkscape:window-x="-8"
     inkscape:window-y="-8"
     inkscape:window-maximized="1"
     inkscape:snap-from-guide="true">
    <inkscape:grid
       type="xygrid"
       id="grid2985"
       empspacing="5"
       visible="true"
       enabled="true"
       snapvisiblegridlinesonly="true"
       spacingx="10px"
       spacingy="10px" />
    <sodipodi:guide
       orientation="1,0"
       position="120,360"
       id="guide2987" />
    <sodipodi:guide
       orientation="1,0"
       position="240,360"
       id="guide2989" />
    <sodipodi:guide
       orientation="1,0"
       position="0,360"
       id="guide2991" />
    <sodipodi:guide
       orientation="1,0"
       position="360,360"
       id="guide2993" />
    <sodipodi:guide
       orientation="0,1"
       position="0,360"
       id="guide2995" />
    <sodipodi:guide
       orientation="0,1"
       position="0,120"
       id="guide2997" />
    <sodipodi:guide
       orientation="0,1"
       position="0,240"
       id="guide2999" />
    <sodipodi:guide
       orientation="1,0"
       position="480,360"
       id="guide3021" />
    <sodipodi:guide
       orientation="0,1"
       position="0,0"
       id="guide3842" />
  </sodipodi:namedview>
  <metadata
     id="metadata7">
    <rdf:RDF>
      <cc:Work
         rdf:about="">
        <dc:format>image/svg+xml</dc:format>
        <dc:type
           rdf:resource="http://purl.org/dc/dcmitype/StillImage" />
        <dc:title></dc:title>
      </cc:Work>
    </rdf:RDF>
  </metadata>
  <g
     inkscape:label="Layer 1"
     inkscape:groupmode="layer"
     id="layer1"
     transform="translate(0,-692.36218)">
    <path
       style="color:#000000;fill:#000000;fill-opacity:1;fill-rule:nonzero;stroke:none;stroke-width:10;marker:none;visibility:visible;display:inline;overflow:visible;enable-background:accumulate"
       d="M 20,140 20,220 100,220 100,140 20,140 z M 60,150 90,150 90,180 60,180 60,150 z"
       id="rect3791"
       inkscape:connector-curvature="0"
       transform="translate(0,692.36218)" />
    <path
       style="color:#000000;fill:#000000;fill-opacity:1;fill-rule:nonzero;stroke:none;stroke-width:10;marker:none;visibility:visible;display:inline;overflow:visible;enable-background:accumulate"
       d="M 200 130 C 183.43146 130 170 143.43146 170 160 C 170 164.63428 171.05772 169.01935 172.9375 172.9375 L 132.9375 212.9375 A 10.001 10.001 0 1 0 147.0625 227.0625 L 187.0625 187.0625 C 190.98065 188.94228 195.36572 190 200 190 C 216.56854 190 230 176.56854 230 160 C 230 143.43146 216.56854 130 200 130 z "
       transform="translate(0,692.36218)"
       id="path3796" />
    <path
       style="color:#000000;fill:#000000;fill-opacity:1;fill-rule:nonzero;stroke:none;stroke-width:1px;marker:none;visibility:visible;display:inline;overflow:visible;enable-background:accumulate"
       d="M 220,1042.3622 220,1032.3622 190,1032.3622 230,992.36218 180,942.36218 130,992.36218 170,1032.3622 140,1032.3622 140,1042.3622 180,1042.3622 220,1042.3622 z"
       id="path3838"
       inkscape:connector-curvature="0" />
    <path
       style="color:#000000;fill:#000000;fill-opacity:1;fill-rule:nonzero;stroke:none;stroke-width:15;marker:none;visibility:visible;display:inline;overflow:visible;enable-background:accumulate"
       d="M 300 130 C 288.95431 130 280 138.95431 280 150 C 280 161.04569 288.95431 170 300 170 C 311.04569 170 320 161.04569 320 150 C 320 138.95431 311.04569 130 300 130 z M 300 170 C 283.43146 170 270 183.43146 270 200 C 270 216.56854 283.43146 230 300 230 C 316.56854 230 330 216.56854 330 200 C 330 183.43146 316.56854 170 300 170 z M 300 180 C 311.04569 180 320 188.95431 320 200 C 320 211.04569 311.04569 220 300 220 C 288.95431 220 280 211.04569 280 200 C 280 188.95431 288.95431 180 300 180 z "
       id="path3866"
       transform="translate(0,692.36218)" />
    <path
       style="color:#000000;fill:#000000;fill-opacity:1;fill-rule:nonzero;stroke:none;stroke-width:15;marker:none;visibility:visible;display:inline;overflow:visible;enable-background:accumulate"
       d="M 60,10 C 32.385763,10 10,32.385763 10,60 10,87.614237 32.385763,110 60,110 87.614237,110 110,87.614237 110,60 110,32.385763 87.614237,10 60,10 z M 60,20 C 82.09139,20 100,37.90861 100,60 L 20,60 C 20,37.90861 37.90861,20 60,20 z"
       id="path3870"
       inkscape:connector-curvature="0"
       transform="translate(0,692.36218)" />
    <path
       style="color:#000000;fill:#000000;fill-opacity:1;fill-rule:nonzero;stroke:none;stroke-width:1px;marker:none;visibility:visible;display:inline;overflow:visible;enable-background:accumulate"
       d="M 250,250 350,250 310,290 310,350 290,350 290,290 z"
       id="path3889"
       inkscape:connector-curvature="0"
       transform="translate(0,692.36218)" />
    <path
       style="color:#000000;fill:#000000;fill-opacity:1;fill-rule:nonzero;stroke:none;stroke-width:1px;marker:none;visibility:visible;display:inline;overflow:visible;enable-background:accumulate"
       d="M 180,10 130,110 230,110 z"
       id="path4501"
       inkscape:connector-curvature="0"
       sodipodi:nodetypes="cccc"
       transform="translate(0,692.36218)" />
    <path
       style="color:#000000;fill:#000000;fill-opacity:1;fill-rule:nonzero;stroke:none;stroke-width:1px;marker:none;visibility:visible;display:inline;overflow:visible;enable-background:accumulate"
       d="M 60,250 10,300 110,300 z M 60,300 10,350 110,350 z"
       id="path4506"
       inkscape:connector-curvature="0"
       sodipodi:nodetypes="cccccccc"
       transform="translate(0,692.36218)" />
    <path
       sodipodi:type="arc"
       style="color:#000000;fill:#000000;fill-opacity:1;fill-rule:nonzero;stroke:none;stroke-width:1px;stroke-linecap:butt;stroke-linejoin:miter;stroke-miterlimit:10;stroke-opacity:1;stroke-dasharray:none;stroke-dashoffset:0;marker:none;visibility:visible;display:inline;overflow:visible;enable-background:accumulate"
       id="path3011"
       sodipodi:cx="300"
       sodipodi:cy="40"
       sodipodi:rx="30"
       sodipodi:ry="30"
       d="M 330,40 A 30,30 0 1 1 270,40 30,30 0 1 1 330,40 z"
       transform="translate(0,692.36218)" />
    <path
       style="color:#000000;fill:#000000;fill-opacity:1;fill-rule:nonzero;stroke:none;stroke-width:1px;marker:none;visibility:visible;display:inline;overflow:visible;enable-background:accumulate"
       d="M 380,140 460,140 460,220 430,220 430,170 380,170 z"
       id="path3032"
       inkscape:connector-curvature="0"
       transform="translate(0,692.36218)" />
    <rect
       style="color:#000000;fill:#000000;fill-opacity:1;fill-rule:nonzero;stroke:none;stroke-width:1px;marker:none;visibility:visible;display:inline;overflow:visible;enable-background:accumulate"
       id="rect3045"
       width="80"
       height="30"
       x="260"
       y="80"
       transform="translate(0,692.36218)" />
    <path
       style="color:#000000;fill:#000000;fill-opacity:1;fill-rule:nonzero;stroke:none;stroke-width:1px;marker:none;visibility:visible;display:inline;overflow:visible;enable-background:accumulate"
       d="M 420,10 414.3125,66.8125 394.125,13.40625 403.34375,69.78125 370,23.40625 C 385,55 395,80 395,110 L 409.09375,110 420,110 430.90625,110 445,110 C 445,80 455,55 470,23.40625 L 436.65625,69.78125 445.875,13.40625 425.6875,66.8125 z"
       transform="translate(0,692.36218)"
       id="path3047"
       inkscape:connector-curvature="0"
       sodipodi:nodetypes="ccccccccccccccc" />
  </g>
</svg>
