<?xml version="1.0" encoding="UTF-8" standalone="no"?>
<!-- Created with Inkscape (http://www.inkscape.org/) -->

<svg
   xmlns:dc="http://purl.org/dc/elements/1.1/"
   xmlns:cc="http://creativecommons.org/ns#"
   xmlns:rdf="http://www.w3.org/1999/02/22-rdf-syntax-ns#"
   xmlns:svg="http://www.w3.org/2000/svg"
   xmlns="http://www.w3.org/2000/svg"
   xmlns:sodipodi="http://sodipodi.sourceforge.net/DTD/sodipodi-0.dtd"
   xmlns:inkscape="http://www.inkscape.org/namespaces/inkscape"
   width="360"
   height="360"
   id="svg2"
   version="1.1"
   inkscape:version="0.48.4 r9939"
   sodipodi:docname="Symbols.svg">
  <defs
     id="defs4" />
  <sodipodi:namedview
     id="base"
     pagecolor="#ffffff"
     bordercolor="#666666"
     borderopacity="1.0"
     inkscape:pageopacity="0.0"
     inkscape:pageshadow="2"
     inkscape:zoom="1.8856181"
     inkscape:cx="147.96046"
     inkscape:cy="191.67994"
     inkscape:document-units="px"
     inkscape:current-layer="layer1"
     showgrid="true"
     showguides="true"
     inkscape:guide-bbox="true"
     inkscape:window-width="1839"
     inkscape:window-height="1177"
     inkscape:window-x="-8"
     inkscape:window-y="-8"
     inkscape:window-maximized="1">
    <inkscape:grid
       type="xygrid"
       id="grid2985"
       empspacing="5"
       visible="true"
       enabled="true"
       snapvisiblegridlinesonly="true"
       spacingx="10px"
       spacingy="10px" />
    <sodipodi:guide
       orientation="1,0"
       position="120,360"
       id="guide2987" />
    <sodipodi:guide
       orientation="1,0"
       position="240,360"
       id="guide2989" />
    <sodipodi:guide
       orientation="1,0"
       position="0,360"
       id="guide2991" />
    <sodipodi:guide
       orientation="1,0"
       position="360,360"
       id="guide2993" />
    <sodipodi:guide
       orientation="0,1"
       position="0,360"
       id="guide2995" />
    <sodipodi:guide
       orientation="0,1"
       position="0,120"
       id="guide2997" />
    <sodipodi:guide
       orientation="0,1"
       position="0,240"
       id="guide2999" />
  </sodipodi:namedview>
  <metadata
     id="metadata7">
    <rdf:RDF>
      <cc:Work
         rdf:about="">
        <dc:format>image/svg+xml</dc:format>
        <dc:type
           rdf:resource="http://purl.org/dc/dcmitype/StillImage" />
        <dc:title></dc:title>
      </cc:Work>
    </rdf:RDF>
  </metadata>
  <g
     inkscape:label="Layer 1"
     inkscape:groupmode="layer"
     id="layer1"
     transform="translate(0,-692.36218)">
    <path
       sodipodi:type="star"
       style="color:#000000;fill:#000000;fill-opacity:1;fill-rule:nonzero;stroke:none;stroke-width:10;marker:none;visibility:visible;display:inline;overflow:visible;enable-background:accumulate"
       id="path3787"
       sodipodi:sides="5"
       sodipodi:cx="300"
       sodipodi:cy="60"
       sodipodi:r1="60"
       sodipodi:r2="22.799999"
       sodipodi:arg1="-1.5707963"
       sodipodi:arg2="-0.9424778"
       inkscape:flatsided="false"
       inkscape:rounded="0"
       inkscape:randomized="0"
       d="M 300,0 313.4015,41.554413 357.06339,41.458982 321.68409,67.045587 335.26711,108.54102 300,82.799999 264.73288,108.54102 278.31591,67.045587 242.93661,41.458979 286.5985,41.554413 z"
       transform="translate(-4.9680469e-7,698.09167)"
       inkscape:transform-center-y="-5.7294902" />
    <path
       style="color:#000000;fill:#000000;fill-opacity:1;fill-rule:nonzero;stroke:none;stroke-width:10;marker:none;visibility:visible;display:inline;overflow:visible;enable-background:accumulate"
       d="M 20 140 L 20 220 L 100 220 L 100 140 L 20 140 z M 60 150 L 90 150 L 90 180 L 60 180 L 60 150 z "
       transform="translate(0,692.36218)"
       id="rect3791" />
    <path
       style="color:#000000;fill:#000000;fill-opacity:1;fill-rule:nonzero;stroke:none;stroke-width:10;marker:none;visibility:visible;display:inline;overflow:visible;enable-background:accumulate"
       d="M 200 130 C 183.43146 130 170 143.43146 170 160 C 170 165.55487 171.52471 170.75706 174.15625 175.21875 L 134.6875 214.6875 A 7.5130096 7.5130096 0 1 0 145.3125 225.3125 L 184.78125 185.84375 C 189.24294 188.47529 194.44513 190 200 190 C 216.56854 190 230 176.56854 230 160 C 230 143.43146 216.56854 130 200 130 z "
       transform="translate(0,692.36218)"
       id="path3796" />
    <path
       style="color:#000000;fill:#000000;fill-opacity:1;fill-rule:nonzero;stroke:none;stroke-width:1px;marker:none;visibility:visible;display:inline;overflow:visible;enable-background:accumulate"
       d="M 220,1042.3622 220,1032.3622 190,1032.3622 230,992.36218 180,942.36218 130,992.36218 170,1032.3622 140,1032.3622 140,1042.3622 180,1042.3622 220,1042.3622 z"
       id="path3838"
       inkscape:connector-curvature="0" />
    <path
       sodipodi:type="arc"
       style="color:#000000;fill:#000000;fill-opacity:1;fill-rule:nonzero;stroke:none;stroke-width:15;marker:none;visibility:visible;display:inline;overflow:visible;enable-background:accumulate"
       id="path3866"
       sodipodi:cx="300"
       sodipodi:cy="150"
       sodipodi:rx="20"
       sodipodi:ry="20"
       d="M 320,150 A 20,20 0 1 1 280,150 20,20 0 1 1 320,150 z"
       transform="translate(0,692.36218)" />
    <path
       style="color:#000000;fill:#000000;fill-opacity:1;fill-rule:nonzero;stroke:none;stroke-width:15;marker:none;visibility:visible;display:inline;overflow:visible;enable-background:accumulate"
       d="M 300 170 C 283.43146 170 270 183.43146 270 200 C 270 216.56854 283.43146 230 300 230 C 316.56854 230 330 216.56854 330 200 C 330 183.43146 316.56854 170 300 170 z M 300 180 C 311.04569 180 320 188.95431 320 200 C 320 211.04569 311.04569 220 300 220 C 288.95431 220 280 211.04569 280 200 C 280 188.95431 288.95431 180 300 180 z "
       transform="translate(0,692.36218)"
       id="path3868" />
    <path
       style="color:#000000;fill:#000000;fill-opacity:1;fill-rule:nonzero;stroke:none;stroke-width:15;marker:none;visibility:visible;display:inline;overflow:visible;enable-background:accumulate"
       d="M 60 10 C 32.385763 10 10 32.385763 10 60 C 10 87.614237 32.385763 110 60 110 C 87.614237 110 110 87.614237 110 60 C 110 32.385763 87.614237 10 60 10 z M 60 20 C 82.09139 20 100 37.90861 100 60 L 20 60 C 20 37.90861 37.90861 20 60 20 z "
       transform="translate(0,692.36218)"
       id="path3870" />
    <path
       style="color:#000000;fill:#000000;fill-opacity:1;fill-rule:nonzero;stroke:none;stroke-width:1px;marker:none;visibility:visible;display:inline;overflow:visible;enable-background:accumulate"
       d="M 250,250 350,250 310,290 310,350 290,350 290,290 z"
       id="path3889"
       inkscape:connector-curvature="0"
       transform="translate(0,692.36218)" />
    <path
       style="color:#000000;fill:#000000;fill-opacity:1;fill-rule:nonzero;stroke:none;stroke-width:1px;marker:none;visibility:visible;display:inline;overflow:visible;enable-background:accumulate"
       d="M 180 10 L 160 50 L 130 50 L 130 60 L 155 60 L 130 110 L 230 110 L 205 60 L 230 60 L 230 50 L 200 50 L 180 10 z "
       transform="translate(0,692.36218)"
       id="path4501" />
    <path
       style="color:#000000;fill:#000000;fill-opacity:1;fill-rule:nonzero;stroke:none;stroke-width:1px;marker:none;visibility:visible;display:inline;overflow:visible;enable-background:accumulate"
       d="M 60,250 110,300 10,300 z"
       id="path4506"
       inkscape:connector-curvature="0"
       transform="translate(0,692.36218)"
       sodipodi:nodetypes="cccc" />
    <path
       style="color:#000000;fill:#000000;fill-opacity:1;fill-rule:nonzero;stroke:none;stroke-width:1px;marker:none;visibility:visible;display:inline;overflow:visible;enable-background:accumulate"
       d="M 60,992.36218 110,1042.3622 10,1042.3622 z"
       id="path4506-4"
       inkscape:connector-curvature="0"
       sodipodi:nodetypes="cccc" />
  </g>
</svg>
