<svg xmlns="http://www.w3.org/2000/svg" width="480" height="360"><path d="M20 140v80h80v-80H20zm40 10h30v30H60v-30zm140-20a30 30 0 0 0-27.06 42.94l-40 40a10 10 0 1 0 14.12 14.12l40-40A30 30 0 1 0 200 130zm20 220v-10h-30l40-40-50-50-50 50 40 40h-30v10h80zm80-220a20 20 0 1 0 0 40 20 20 0 0 0 0-40zm0 40a30 30 0 1 0 0 60 30 30 0 0 0 0-60zm0 10a20 20 0 1 1 0 40 20 20 0 0 1 0-40zM60 10a50 50 0 1 0 0 100 50 50 0 0 0 0-100zm0 10a40 40 0 0 1 40 40H20a40 40 0 0 1 40-40zm190 230h100l-40 40v60h-20v-60zM180 10l-50 100h100zM60 250l-50 50h100zm0 50l-50 50h100zm320-160v30h50v50h30v-80zm40-130l-6.4 51.33-19.5-47.93 7.11 51.25L370 23.4C385 55 395 75 395 110h50c0-35 10-55 25-86.6l-31.21 41.25 7.1-51.25-19.48 47.93zM260 80h80v30h-80zm70-40a30 30 0 1 1-60 0 30 30 0 1 1 60 0z"/></svg>